<?xml version="1.0" encoding="UTF-8"?><svg id="Layer_1" xmlns="http://www.w3.org/2000/svg" viewBox="0 0 775.57 108.53"><defs><style>.cls-1{fill:#231f20;stroke-width:0px;}</style></defs><path class="cls-1" d="M145.66,10.7c-3.63.3-6.28.9-7.95,1.79-1.67.9-2.99,2.45-3.96,4.67-.97,2.21-2.25,6.18-3.85,11.91l-21.05,77.87h-10.38l-25.91-72.79-24.26,72.79h-10.23L14.63,26.9c-1.39-4.78-2.68-8.31-3.84-10.6-1.17-2.29-2.54-3.79-4.11-4.52-1.57-.72-3.8-1.08-6.68-1.08V3.83h43.82v6.87c-3.43,0-5.95.27-7.54.82-1.59.55-2.39,2.02-2.39,4.4,0,1.59.57,4.31,1.72,8.14l14.78,50.54L74.13,3.83h9.78l25.08,70.77,12.69-47.48c.9-3.23,1.34-5.85,1.34-7.84,0-3.63-1.13-5.95-3.4-6.94-2.27-1-5.16-1.54-8.7-1.64V3.83h34.72v6.87Z"/><path class="cls-1" d="M218,89.31c0,3.78-.77,7.01-2.31,9.67-1.54,2.66-3.62,4.63-6.23,5.9-2.61,1.27-5.56,1.9-8.85,1.9-4.18,0-7.67-.98-10.45-2.95-2.79-1.97-4.45-4.32-5-7.06-8.31,6.67-16.67,10-25.08,10-5.38,0-9.78-1.31-13.21-3.92-3.43-2.61-5.15-6.06-5.15-10.34,0-3.53.92-6.73,2.76-9.59,1.84-2.86,4.54-5.41,8.1-7.65,3.56-2.24,7.8-4.22,12.73-5.94,4.93-1.72,11.07-3.52,18.44-5.41v-4.26c0-3.53-.83-6.31-2.5-8.32-1.67-2.02-4.74-3.02-9.22-3.02-3.83,0-6.6.8-8.29,2.39-1.69,1.59-2.81,4.01-3.36,7.24-.4,2.29-1.13,4.17-2.2,5.64-1.07,1.47-3.3,2.2-6.68,2.2-2.09,0-3.93-.6-5.52-1.79-1.59-1.19-2.39-2.96-2.39-5.3,0-4.63,2.51-8.66,7.54-12.09,5.03-3.43,12.74-5.15,23.14-5.15,10.95,0,18.48,1.84,22.58,5.52,4.11,3.68,6.16,8.61,6.16,14.78v23.59c0,2.99.07,5.18.22,6.57.15,1.39.56,2.45,1.23,3.17.67.72,1.73,1.08,3.17,1.08,1.29,0,2.43-.67,3.4-2.02.97-1.34,1.46-2.96,1.46-4.85h5.52ZM183.73,89.91v-18.51c-9.46,2.99-15.47,5.91-18.03,8.77-2.56,2.86-3.84,5.66-3.84,8.4,0,2.29.7,4.13,2.09,5.52,1.39,1.39,3.36,2.09,5.9,2.09,2.74,0,5.15-.57,7.24-1.72,2.09-1.14,4.3-2.66,6.64-4.55Z"/><path class="cls-1" d="M272.42,91.78c-2.69,5.62-5.82,9.66-9.41,12.09-3.58,2.44-7.79,3.66-12.62,3.66-5.87,0-10.2-1.19-12.99-3.58-2.79-2.39-4.5-5.06-5.15-8.03-.65-2.96-.97-6.28-.97-9.97v-35.16h-11.27v-6.87c4.73,0,8.83-.9,12.32-2.69,3.48-1.79,6.23-4.21,8.25-7.24,2.02-3.04,3.3-6.3,3.85-9.78h6.12v19.71h21.13v6.87h-21.13v35.61c0,4.33.29,7.45.86,9.37.57,1.92,1.98,2.87,4.22,2.87,2.39,0,4.35-.93,5.9-2.8,1.54-1.87,3.04-4.19,4.48-6.98l6.42,2.91Z"/><path class="cls-1" d="M345.06,89.91c-6.02,11.75-15.7,17.62-29.04,17.62-6.22,0-12.11-1.27-17.66-3.81-5.55-2.54-10-6.22-13.36-11.05-3.36-4.83-5.04-10.48-5.04-16.95,0-4.48.91-8.76,2.72-12.84,1.82-4.08,4.44-7.76,7.88-11.05,3.43-3.28,7.5-5.83,12.21-7.65,4.7-1.82,9.74-2.72,15.12-2.72,6.87,0,12.92,1.36,18.14,4.07,5.23,2.71,7.84,6.46,7.84,11.24,0,2.19-.82,4.06-2.46,5.6-1.64,1.54-3.53,2.31-5.67,2.31s-3.61-.47-4.7-1.42c-1.1-.95-1.82-1.92-2.17-2.91-.35-1-.85-2.76-1.49-5.3-.65-2.44-1.72-4.17-3.21-5.19-1.49-1.02-3.58-1.53-6.27-1.53-4.53,0-8.55,1.68-12.06,5.04-3.51,3.36-5.26,9.64-5.26,18.85,0,4.93.71,9.46,2.13,13.59,1.42,4.13,3.66,7.4,6.72,9.82,3.06,2.42,6.81,3.62,11.24,3.62,4.93,0,8.68-1.22,11.27-3.66,2.59-2.44,4.88-5.3,6.87-8.59l6.27,2.91Z"/><path class="cls-1" d="M435.32,105.07h-38.37v-6.87c3.43,0,5.8-.61,7.09-1.83,1.29-1.22,1.94-3,1.94-5.34v-25.08c0-2.49-.16-4.73-.49-6.72-.32-1.99-1.18-3.79-2.58-5.41-1.39-1.62-3.53-2.43-6.42-2.43-2.34,0-4.72.63-7.13,1.9-2.42,1.27-4.27,2.92-5.56,4.96-1.39,2.29-2.28,4.49-2.65,6.61-.37,2.12-.56,4.67-.56,7.65v12.84c0,3.48.14,6.04.41,7.65.27,1.62,1.05,2.89,2.31,3.81,1.27.92,3.37,1.38,6.31,1.38v6.87h-39.12v-6.87c3.33,0,5.79-.35,7.35-1.05,1.57-.7,2.54-1.73,2.91-3.1.37-1.37.56-3.62.56-6.76V24.66c0-3.73-.6-6.23-1.79-7.5-1.19-1.27-4.21-1.93-9.03-1.98v-6.72l30.09-6.42v50.39c2.94-3.08,5.98-5.69,9.15-7.8,3.16-2.12,7.55-3.17,13.18-3.17,2.59,0,5.18.37,7.76,1.12,2.59.75,4.91,1.84,6.98,3.29,2.06,1.44,3.57,3.09,4.52,4.93,2.04,3.63,3.06,8.36,3.06,14.18v22.32c0,4.18.53,7.04,1.61,8.59,1.07,1.54,3.89,2.31,8.47,2.31v6.87Z"/><path class="cls-1" d="M585.61,10.7c-3.63.3-6.28.9-7.95,1.79-1.67.9-2.99,2.45-3.96,4.67-.97,2.21-2.25,6.18-3.84,11.91l-21.05,77.87h-10.38l-25.91-72.79-24.26,72.79h-10.23l-23.44-80.03c-1.39-4.78-2.68-8.31-3.84-10.6-1.17-2.29-2.54-3.79-4.11-4.52-1.57-.72-3.8-1.08-6.68-1.08V3.83h43.82v6.87c-3.43,0-5.95.27-7.54.82-1.59.55-2.39,2.02-2.39,4.4,0,1.59.57,4.31,1.72,8.14l14.78,50.54,23.74-70.77h9.78l25.08,70.77,12.69-47.48c.9-3.23,1.34-5.85,1.34-7.84,0-3.63-1.13-5.95-3.4-6.94-2.27-1-5.16-1.54-8.7-1.64V3.83h34.71v6.87Z"/><path class="cls-1" d="M627.71,105.07h-40.54v-6.87h2.17c2.89,0,4.99-.4,6.31-1.19,1.32-.8,2.13-1.92,2.43-3.36.3-1.44.45-3.56.45-6.35v-22.17c0-3.09-.19-5.27-.56-6.57-.37-1.29-1.34-2.24-2.91-2.84-1.57-.6-4.19-.92-7.88-.97v-6.87l30.61-6.42v45.84c0,4.18.52,7.04,1.57,8.59,1.05,1.54,3.83,2.31,8.36,2.31v6.87ZM619.28,12.27c0,2.99-1.06,5.54-3.17,7.65-2.12,2.12-4.67,3.17-7.65,3.17s-5.49-1.08-7.65-3.25-3.25-4.69-3.25-7.58,1.07-5.55,3.21-7.69c2.14-2.14,4.7-3.21,7.69-3.21s5.6,1.04,7.69,3.14c2.09,2.09,3.14,4.68,3.14,7.76Z"/><path class="cls-1" d="M699.68,87.3c0,4.28-1.28,7.94-3.84,10.97-2.56,3.04-6.07,5.34-10.53,6.91-4.46,1.57-9.59,2.35-15.42,2.35-3.93,0-7.89-.39-11.87-1.16-3.98-.77-7.47-1.93-10.45-3.47l-2.91,4.18h-5.82l-.75-19.41h6.27c1.09,3.34,3.61,6.33,7.54,9,3.93,2.66,9.63,3.99,17.1,3.99,1.89,0,3.93-.14,6.12-.41,2.19-.27,4.29-1.03,6.31-2.28,2.02-1.24,3.02-3.16,3.02-5.75,0-2.24-1.03-3.87-3.1-4.89-2.07-1.02-5.93-2.25-11.61-3.7-6.87-1.74-12.49-3.4-16.87-4.96-4.38-1.57-8.09-3.82-11.12-6.76-3.04-2.94-4.55-6.72-4.55-11.35,0-5.87,2.7-10.53,8.1-13.96,5.4-3.43,12.48-5.15,21.24-5.15,5.47,0,9.85.45,13.14,1.34s6.05,1.87,8.29,2.91l1.79-3.81h5.97v17.32h-6.12c-.55-2.04-1.79-3.91-3.73-5.6-1.94-1.69-4.52-3-7.73-3.92-3.21-.92-6.93-1.38-11.16-1.38-3.48,0-6.96.37-10.42,1.12-3.46.75-5.19,2.51-5.19,5.3,0,1.15.34,2.09,1.01,2.84s1.83,1.44,3.47,2.09c1.64.65,4.53,1.49,8.66,2.54,4.13,1.05,6.59,1.67,7.39,1.87,8.11,2.04,14.77,4.55,19.97,7.54,5.2,2.99,7.8,8.21,7.8,15.68Z"/><path class="cls-1" d="M777.25,72.22h-45.91c.05.95.19,2.96.41,6.05.22,3.09.92,6.25,2.09,9.48,1.17,3.24,3.18,5.96,6.05,8.17,2.86,2.21,6.71,3.32,11.53,3.32,2.64,0,5.82-.67,9.56-2.02,3.73-1.34,6.97-3.93,9.71-7.76l5.82,3.96c-5.87,9.41-15.21,14.11-28,14.11-5.72,0-10.94-.82-15.64-2.46s-8.7-3.93-11.98-6.87c-3.29-2.94-5.8-6.4-7.54-10.38-1.74-3.98-2.61-8.26-2.61-12.84,0-6.02,1.46-11.6,4.37-16.72,2.91-5.13,7.08-9.21,12.5-12.24,5.42-3.04,11.62-4.55,18.59-4.55s12.58,1.47,17.28,4.4c4.7,2.94,8.17,6.74,10.41,11.42,2.24,4.68,3.36,9.66,3.36,14.93ZM758.74,65.35c0-11.35-4.48-17.02-13.44-17.02-4.33,0-7.65,1.57-9.97,4.7-2.31,3.14-3.6,7.24-3.85,12.32h27.25Z"/></svg>